Coordinates
version=1
nRows=9
nColumns=24
inDegrees=yes

Units are S.I. units (second, meters, Newtons, ...)
Angles are in degrees.

endheader
time	pelvis_tilt	pelvis_list	pelvis_rotation	pelvis_tx	pelvis_ty	pelvis_tz	hip_flexion_r	hip_adduction_r	hip_rotation_r	knee_angle_r	ankle_angle_r	subtalar_angle_r	mtp_angle_r	hip_flexion_l	hip_adduction_l	hip_rotation_l	knee_angle_l	ankle_angle_l	subtalar_angle_l	mtp_angle_l	lumbar_extension	lumbar_bending	lumbar_rotation
      6.32000000	      2.56617385	      5.28409162	     -3.19751264	      2.50518671	      0.68434122	     -0.09691194	     17.49185275	     -1.62434149	     -0.62238530	    -65.30686499	     -4.75906372	    -24.20642237	      0.00000000	     -0.60910913	      7.78000115	      2.13024124	     -5.38132041	      8.40835671	     -8.10367597	      0.00000000	    -12.32131657	    -15.15226108	      3.65376995
      6.33000000	      2.29834525	      4.87132570	     -2.35858157	      2.51510130	      0.68458375	     -0.09824876	     19.59344974	     -1.32192959	     -1.27236991	    -64.48391964	     -2.78870503	    -22.24977429	      0.00000000	     -1.44216805	      7.45026723	      3.12491191	     -5.13706470	      9.02114815	     -8.21668228	      0.00000000	    -12.61196604	    -14.49552729	      2.74528117
      6.34000000	      2.09131313	      4.51837031	     -1.50569804	      2.52498274	      0.68465960	     -0.09960213	     21.43250732	     -1.20015860	     -1.99045068	    -63.11544353	     -1.14603922	    -20.63771763	      0.00000000	     -2.26963992	      7.16624716	      4.05570500	     -4.99353802	      9.69517227	     -8.32115612	      0.00000000	    -12.96979898	    -13.88667937	      1.82444114
      6.35000000	      1.91167263	      4.23380166	     -0.54465227	      2.53482738	      0.68458948	     -0.10104562	     22.98978422	     -1.29110821	     -2.86409827	    -61.14281473	      0.07285818	    -19.72043147	      0.00000000	     -3.04494072	      6.92041619	      4.86438071	     -4.96585759	     10.35062747	     -8.14946215	      0.00000000	    -13.37669253	    -13.32108501	      0.79803127
      6.36000000	      1.75676026	      3.99991420	      0.36329090	      2.54473163	      0.68435855	     -0.10241534	     24.25379564	     -1.48663999	     -3.72487964	    -58.55818435	      0.91439643	    -19.30999559	      0.00000000	     -3.81058275	      6.70497541	      5.54699187	     -4.99764669	     11.11518365	     -7.92420873	      0.00000000	    -13.76605895	    -12.80886934	     -0.15904114
      6.37000000	      1.60838981	      3.89076707	      1.30414151	      2.55467296	      0.68397083	     -0.10384154	     25.21819383	     -1.90975969	     -4.68137053	    -55.36004895	      1.54884448	    -19.37137199	      0.00000000	     -4.54142195	      6.60285114	      6.18405131	     -5.10445837	     11.88597305	     -7.64484231	      0.00000000	    -14.13925407	    -12.41571336	     -1.01583310
      6.38000000	      1.47273409	      3.88659007	      2.26119112	      2.56466592	      0.68347362	     -0.10530374	     25.83425702	     -2.48465633	     -5.67307687	    -51.50146946	      1.85681732	    -19.76518109	      0.00000000	     -5.25214070	      6.59712594	      6.74786959	     -5.28310474	     12.60441079	     -7.31224087	      0.00000000	    -14.51019328	    -12.11641310	     -1.92821027
      6.39000000	      1.42323590	      4.00303698	      3.18023242	      2.57475754	      0.68294079	     -0.10674668	     25.98757674	     -3.16645625	     -6.64706153	    -46.94130298	      1.67044243	    -20.58748993	      0.00000000	     -6.03480988	      6.70370268	      7.17788860	     -5.52995401	     13.29267962	     -6.89224125	      0.00000000	    -14.95435747	    -11.94221592	     -2.72553930
      6.40000000	      1.34983681	      4.15011186	      3.97592472	      2.58515013	      0.68223659	     -0.10810070	     25.77189838	     -3.79434741	     -7.55165220	    -41.68200507	      1.12918872	    -21.49375579	      0.00000000	     -6.85298401	      6.84237477	      7.49594211	     -5.72100189	     13.97235563	     -6.57199607	      0.00000000	    -15.24329672	    -11.80139866	     -3.36516253
